<svg width="167" height="40" viewBox="0 0 167 40" fill="none" xmlns="http://www.w3.org/2000/svg">
  <g clip-path="url(#clip0_2_2155)">
    <path d="M50.6407 33.435C45.5015 33.435 41.3319 29.467 41.3319 24.5762V15.7173H54.5193V9.81139H41.3319V0.952515H35.1261V24.5762C35.1261 32.7337 42.0689 39.341 50.6407 39.341H52.0952L52.1921 33.435H50.6407Z" fill="#F71735"/>
    <path d="M25.0611 12.266C22.54 10.6788 19.4952 9.77448 16.2372 9.81139C7.91748 9.95904 1.14925 16.4002 0.994101 24.3178C0.935921 27.4184 1.88619 30.316 3.5734 32.7153C4.7176 34.3763 6.23027 35.7974 7.95627 36.8863L12.4943 32.5676L24.9059 20.7558L29.4439 16.4371C28.2997 14.7761 26.8065 13.3549 25.0611 12.266ZM8.11141 28.3966C7.52962 27.2338 7.19993 25.9419 7.19993 24.5762C7.19993 19.6853 11.3695 15.7173 16.5087 15.7173C17.9438 15.7173 19.3013 16.0311 20.5231 16.5847L8.11141 28.3966Z" fill="#F71735"/>
    <path d="M140.625 24.5762C140.625 29.467 136.456 33.4351 131.316 33.4351C129.881 33.4351 128.524 33.1213 127.302 32.5676L144.252 16.4371C143.108 14.7761 141.595 13.3549 139.869 12.266C137.348 10.6788 134.303 9.77448 131.045 9.81139C122.725 9.94058 115.957 16.4002 115.802 24.3178C115.744 27.4184 116.694 30.316 118.381 32.7153C119.525 34.3763 121.038 35.7974 122.764 36.8863C125.208 38.4366 128.155 39.341 131.316 39.341C133.818 39.341 136.184 38.7688 138.279 37.7722C143.34 35.336 146.831 30.3529 146.831 24.5762H140.625ZM122.008 24.5762C122.008 19.6853 126.177 15.7173 131.316 15.7173C132.752 15.7173 134.109 16.0311 135.331 16.5847L122.919 28.3966C122.337 27.2338 122.008 25.9419 122.008 24.5762Z" fill="#F71735"/>
    <path d="M97.0292 9.8114C88.4962 9.88522 81.6698 16.6401 81.6698 24.7607V39.341H87.8756V24.7238C87.8756 19.8699 91.9094 15.8096 97.0098 15.7173C102.227 15.625 106.493 19.63 106.493 24.5762V39.341H112.699V24.5762C112.699 16.3817 105.659 9.73758 97.0292 9.8114Z" fill="#F71735"/>
    <path d="M165.448 33.435C160.309 33.435 156.14 29.467 156.14 24.5762V15.7173H167V9.81139H156.14V0.952515H149.934V24.5762C149.934 32.7337 156.877 39.341 165.448 39.341H167V33.435H165.448Z" fill="#F71735"/>
    <path d="M77.7912 9.8114L66.931 33.4351L56.0707 9.8114H49.2443L63.0523 39.341H70.8096L84.54 9.8114H77.7912Z" fill="#F71735"/>
    <path d="M32.0232 24.5762H28.9203H25.8173C25.8173 27.0308 24.7701 29.2455 23.0829 30.8328C21.3957 32.42 19.0685 33.435 16.5086 33.435V36.388V39.341C20.7945 39.341 24.6731 37.6799 27.4852 35.0223C30.2778 32.3461 32.0232 28.6549 32.0232 24.5762Z" fill="white"/>
  </g>
  <defs>
    <clipPath id="clip0_2_2155">
      <rect width="167" height="40" fill="white"/>
    </clipPath>
  </defs>
</svg>