<svg width="32" height="32" viewBox="0 0 32 32" fill="none" xmlns="http://www.w3.org/2000/svg">
<path d="M19.76 18.27V20.27C23.39 20.91 25.17 22.66 25.63 25.98H6.13C6.58 22.73 8.28 20.98 11.76 20.31V18.31C7.23 19.09 4 21.55 4 28H27.76C27.76 21.43 24.41 19 19.76 18.27Z" fill="white"/>
<path d="M19.76 16.45C20.3865 15.8897 20.8882 15.204 21.2327 14.4375C21.5773 13.6709 21.7569 12.8404 21.76 12V10C21.76 8.4087 21.1279 6.88258 20.0026 5.75736C18.8774 4.63214 17.3513 4 15.76 4C14.1687 4 12.6426 4.63214 11.5174 5.75736C10.3922 6.88258 9.76001 8.4087 9.76001 10V12C9.76427 13.1564 10.1026 14.2869 10.7343 15.2555C11.366 16.2241 12.2641 16.9895 13.3206 17.4596C14.3771 17.9298 15.5469 18.0846 16.6894 17.9055C17.8318 17.7264 18.8981 17.2209 19.76 16.45ZM12.32 14C11.9565 13.396 11.763 12.705 11.76 12V10C11.76 8.93913 12.1814 7.92172 12.9316 7.17157C13.6817 6.42143 14.6991 6 15.76 6C16.8209 6 17.8383 6.42143 18.5884 7.17157C19.3386 7.92172 19.76 8.93913 19.76 10V12C19.7571 12.705 19.5636 13.396 19.2 14C18.8458 14.5969 18.3424 15.0914 17.7393 15.4348C17.1362 15.7782 16.4541 15.9588 15.76 15.9588C15.066 15.9588 14.3838 15.7782 13.7807 15.4348C13.1776 15.0914 12.6742 14.5969 12.32 14Z" fill="white"/>
</svg> 